<?xml version="1.0" encoding="utf-8"?>
<!DOCTYPE svg>

<svg xmlns="http://www.w3.org/2000/svg" height="1000" width="1000">

    <ellipse cx="500" cy="200" rx="150" ry="160" stroke="black" stroke-width="2" fill="green" />
    <line x1="425" y1="338" x2="450" y2="450" stroke="black" stroke-width="2" />
    <line x1="575" y1="338" x2="550" y2="450" stroke="black" stroke-width="2" />
    <rect x="350" y="150" rx="10" ry="110" width="300" height="95" stroke="black" stroke-width="2" fill="white" />
    <rect x="450" y="450" width="100" height="80" stroke="black" stroke-width="2" fill="brown" />


    <polygon points="500,240 450,195 550,195" stroke="green" stroke-width="4" fill="white" />
    <circle cx="500" cy="205" r="18" stroke="green" stroke-width="4" fill="white" />

    <g transform="translate(474,190) scale(0.045,-0.045)" fill="green" stroke="none">
        <path d="M460 746 c-68 -15 -133 -48 -183 -92 -20 -19 -47 -34 -60 -34 -39 0
-122 -46 -155 -86 -39 -47 -56 -103 -47 -158 12 -82 120 -187 163 -160 32 21
25 44 -28 92 -42 38 -53 55 -57 87 -6 49 24 98 77 127 l35 18 7 -44 c9 -62 35
-112 77 -147 47 -39 80 -47 97 -24 17 22 7 46 -34 80 -95 79 -74 174 51 234
34 16 77 32 95 35 l32 6 0 -135 c0 -108 3 -137 16 -149 19 -19 38 -20 52 -3 7
8 13 69 14 148 l3 134 35 -3 c43 -4 127 -42 157 -71 68 -65 64 -130 -12 -199
-47 -42 -54 -59 -33 -80 18 -18 38 -15 81 15 48 33 85 95 93 156 l7 47 38 -22
c94 -53 98 -147 10 -218 -56 -45 -54 -90 3 -90 20 0 105 78 122 112 22 43 20
128 -5 176 -31 61 -123 122 -182 122 -12 0 -40 16 -62 36 -97 88 -257 124
-407 90z" />
        <path d="M432 245 c-34 -7 -95 -29 -135 -49 -70 -34 -167 -100 -167 -114 0 -4
14 -22 31 -40 l30 -33 42 36 c94 81 254 132 377 121 116 -10 249 -65 321 -132
l25 -24 34 35 34 35 -34 29 c-57 48 -131 89 -210 117 -93 33 -251 42 -348 19z" />
    </g>

</svg>